<svg width="78" height="64" viewBox="0 0 78 64" fill="none" xmlns="http://www.w3.org/2000/svg">
<path d="M45.86 28.075H43.9H41.94H39.98H38.02H36.06H34.1H32.14H30.18H28.22H26.25V30.035H28.22H30.18H32.14H34.1H36.06H38.02H39.98H41.94H43.9H45.86H47.8199H49.78V28.075H47.8199H45.86Z" fill="#CFCFCF"/>
<path d="M47.82 22.195H45.86H43.9V24.155H45.86H47.82H49.78H51.75V22.195H49.78H47.82Z" fill="#CFCFCF"/>
<path d="M24.2901 24.155H26.2501H28.2201H30.1801H32.1401H34.1001H36.0601H38.0201H39.9801V22.195H38.0201H36.0601H34.1001H32.1401H30.1801H28.2201H26.2501H24.2901H22.3301H20.3701V24.155H22.3301H24.2901Z" fill="#CFCFCF"/>
<path d="M47.82 16.315H45.86H43.9H41.9401H39.98H38.02H36.0601V18.275H38.02H39.98H41.9401H43.9H45.86H47.82H49.78H51.75H53.71H55.67V16.315H53.71H51.75H49.78H47.82Z" fill="#CFCFCF"/>
<path d="M24.2901 18.275H26.2501H28.2201H30.1801H32.1401V16.315H30.1801H28.2201H26.2501H24.2901H22.3301H20.3701V18.275H22.3301H24.2901Z" fill="#CFCFCF"/>
<path d="M75.27 20.235H73.31V18.275H71.35V16.315H69.39V14.355H67.43V12.385H65.47V10.425V8.46503V6.505V4.54498V2.58502H63.51V4.54498V6.505V8.46503V10.425V12.385V14.355V16.315V18.275V20.235V22.195V24.155V26.115H61.55V28.075H63.51H65.47V26.115H67.43H69.39V24.155H71.35H73.31V26.115H71.35H69.39V28.075H67.43H65.47V30.035H63.51H61.55V31.995H59.59H57.63V33.955H55.67H53.71V35.915H51.75H49.78V37.875H47.82H45.86V39.845H43.9H41.9401V41.805H39.98H38.02H36.0601V39.845H34.1H32.14V37.875H30.1801H28.22V35.915H26.2501H24.29V33.955H22.33H20.3701V31.995H18.41H16.45V30.035H14.4901H12.53V28.075H10.57H8.61005V26.115H6.65002H4.69006V24.155H6.65002H8.61005V26.115H10.57H12.53V28.075H14.4901H16.45V26.115H14.4901V24.155V22.195V20.235V18.275V16.315V14.355V12.385V10.425V8.46503V6.505V4.54498V2.58502H12.53V4.54498V6.505V8.46503V10.425V12.385H10.57V14.355H8.61005V16.315H6.65002V18.275H4.69006V20.235H2.73004V22.195H0.76001V24.155V26.115V28.075V30.035V31.995V33.955V35.915V37.875V39.845V41.805V43.765V45.725V47.685V49.645V51.605V53.565V55.525V57.485V59.445H2.73004V61.405H4.69006V63.375H6.65002H8.61005H10.57H12.53H14.4901H16.45H18.41H20.3701H22.33H24.29H26.2501H28.22H30.1801H32.14H34.1H36.0601H38.02H39.98H41.9401H43.9H45.86H47.82H49.78H51.75H53.71H55.67H57.63H59.59H61.55H63.51H65.47H67.43H69.39H71.35H73.31V61.405H75.27V59.445H77.24V57.485V55.525V53.565V51.605V49.645V47.685V45.725V43.765V41.805V39.845V37.875V35.915V33.955V31.995V30.035V28.075V26.115V24.155V22.195H75.27V20.235ZM55.67 37.875V39.845H57.63V41.805H59.59V43.765H61.55V45.725H63.51V47.685H65.47V49.645H67.43V51.605H69.39V53.565H71.35V55.525H73.31V57.485H71.35V55.525H69.39V53.565H67.43V51.605H65.47V49.645H63.51V47.685H61.55V45.725H59.59V43.765H57.63V41.805H55.67V39.845H53.71V37.875H55.67ZM24.29 39.845H22.33V41.805H20.3701V43.765H18.41V45.725H16.45V47.685H14.4901V49.645H12.53V51.605H10.57V53.565H8.61005V55.525H6.65002V57.485H4.69006V55.525H6.65002V53.565H8.61005V51.605H10.57V49.645H12.53V47.685H14.4901V45.725H16.45V43.765H18.41V41.805H20.3701V39.845H22.33V37.875H24.29V39.845Z" fill="#CFCFCF"/>
<path d="M57.63 28.075V30.035H59.59H61.55V28.075H59.59H57.63Z" fill="#CFCFCF"/>
<path d="M55.67 30.035H53.71V31.995H55.67H57.6299V30.035H55.67Z" fill="#CFCFCF"/>
<path d="M51.75 31.995H49.78V33.955H51.75H53.71V31.995H51.75Z" fill="#CFCFCF"/>
<path d="M47.8201 33.955H45.8601V35.915H47.8201H49.7801V33.955H47.8201Z" fill="#CFCFCF"/>
<path d="M43.9 35.915H41.9401V37.875H43.9H45.86V35.915H43.9Z" fill="#CFCFCF"/>
<path d="M39.98 37.875H38.02H36.0601V39.845H38.02H39.98H41.9401V37.875H39.98Z" fill="#CFCFCF"/>
<path d="M36.0601 37.875V35.915H34.1H32.14V37.875H34.1H36.0601Z" fill="#CFCFCF"/>
<path d="M32.14 35.915V33.955H30.18H28.22V35.915H30.18H32.14Z" fill="#CFCFCF"/>
<path d="M32.14 12.385H34.1H36.06H38.02H39.98H41.94H43.9H45.86H47.8199H49.78V10.425H47.8199H45.86H43.9H41.94H39.98H38.02H36.06H34.1H32.14H30.18H28.22V12.385H30.18H32.14Z" fill="#CFCFCF"/>
<path d="M28.22 33.955V31.995H26.2501H24.29V33.955H26.2501H28.22Z" fill="#CFCFCF"/>
<path d="M24.2901 31.995V30.035H22.3301H20.3701V31.995H22.3301H24.2901Z" fill="#CFCFCF"/>
<path d="M20.37 30.035V28.075H18.41H16.45V30.035H18.41H20.37Z" fill="#CFCFCF"/>
<path d="M18.41 2.58502H20.37H22.33H24.29H26.25H28.22H30.18H32.14H34.1H36.06H38.02H39.98H41.94H43.9H45.86H47.8199H49.78H51.7499H53.71H55.67H57.6299H59.59H61.55H63.5099V0.625H61.55H59.59H57.6299H55.67H53.71H51.7499H49.78H47.8199H45.86H43.9H41.94H39.98H38.02H36.06H34.1H32.14H30.18H28.22H26.25H24.29H22.33H20.37H18.41H16.45H14.49V2.58502H16.45H18.41Z" fill="#CFCFCF"/>
</svg>
